%TF.GenerationSoftware,KiCad,Pcbnew,10.0.2*%
%TF.CreationDate,2026-05-27T21:32:14+09:00*%
%TF.ProjectId,avionics,6176696f-6e69-4637-932e-6b696361645f,rev?*%
%TF.SameCoordinates,Original*%
%TF.FileFunction,Soldermask,Bot*%
%TF.FilePolarity,Negative*%
%FSLAX46Y46*%
G04 Gerber Fmt 4.6, Leading zero omitted, Abs format (unit mm)*
G04 Created by KiCad (PCBNEW 10.0.2) date 2026-05-27 21:32:14*
%MOMM*%
%LPD*%
G01*
G04 APERTURE LIST*
G04 Aperture macros list*
%AMRoundRect*
0 Rectangle with rounded corners*
0 $1 Rounding radius*
0 $2 $3 $4 $5 $6 $7 $8 $9 X,Y pos of 4 corners*
0 Add a 4 corners polygon primitive as box body*
4,1,4,$2,$3,$4,$5,$6,$7,$8,$9,$2,$3,0*
0 Add four circle primitives for the rounded corners*
1,1,$1+$1,$2,$3*
1,1,$1+$1,$4,$5*
1,1,$1+$1,$6,$7*
1,1,$1+$1,$8,$9*
0 Add four rect primitives between the rounded corners*
20,1,$1+$1,$2,$3,$4,$5,0*
20,1,$1+$1,$4,$5,$6,$7,0*
20,1,$1+$1,$6,$7,$8,$9,0*
20,1,$1+$1,$8,$9,$2,$3,0*%
G04 Aperture macros list end*
%ADD10C,1.879600*%
%ADD11C,3.301600*%
%ADD12R,1.600000X1.600000*%
%ADD13C,1.600000*%
%ADD14C,1.300000*%
%ADD15RoundRect,1.500000X1.500000X-1.500000X1.500000X1.500000X-1.500000X1.500000X-1.500000X-1.500000X0*%
%ADD16C,6.000000*%
%ADD17R,2.000000X2.000000*%
%ADD18C,2.000000*%
%ADD19RoundRect,0.250001X1.149999X-1.149999X1.149999X1.149999X-1.149999X1.149999X-1.149999X-1.149999X0*%
%ADD20C,2.800000*%
%ADD21C,3.302000*%
%ADD22C,2.082800*%
%ADD23RoundRect,0.050800X0.889000X-0.889000X0.889000X0.889000X-0.889000X0.889000X-0.889000X-0.889000X0*%
%ADD24R,1.800000X1.800000*%
%ADD25C,1.800000*%
G04 APERTURE END LIST*
D10*
%TO.C,U1*%
X138415000Y-106435000D03*
X135875000Y-106435000D03*
X133335000Y-106435000D03*
X130795000Y-106435000D03*
X128255000Y-106435000D03*
X125715000Y-106435000D03*
X123175000Y-106435000D03*
X120635000Y-106435000D03*
X118095000Y-106435000D03*
X133335000Y-119135000D03*
X130795000Y-119135000D03*
X128255000Y-119135000D03*
X125715000Y-119135000D03*
X123175000Y-119135000D03*
D11*
X138415000Y-119135000D03*
X118095000Y-119135000D03*
%TD*%
D12*
%TO.C,U4*%
X94870000Y-100870000D03*
D13*
X97410000Y-100870000D03*
X99950000Y-100870000D03*
X102490000Y-100870000D03*
X105030000Y-100870000D03*
X107570000Y-100870000D03*
X110110000Y-100870000D03*
X112650000Y-100870000D03*
X115190000Y-100870000D03*
X117730000Y-100870000D03*
X120270000Y-100870000D03*
X122810000Y-100870000D03*
X125350000Y-100870000D03*
X127890000Y-100870000D03*
X130430000Y-100870000D03*
X132970000Y-100870000D03*
X135510000Y-100870000D03*
X138050000Y-100870000D03*
X140590000Y-100870000D03*
X143130000Y-100870000D03*
X145670000Y-100870000D03*
X148210000Y-100870000D03*
X150750000Y-100870000D03*
X153290000Y-100870000D03*
X153290000Y-85630000D03*
X150750000Y-85630000D03*
X148210000Y-85630000D03*
X145670000Y-85630000D03*
X143130000Y-85630000D03*
X140590000Y-85630000D03*
X138050000Y-85630000D03*
X135510000Y-85630000D03*
X132970000Y-85630000D03*
X130430000Y-85630000D03*
X127890000Y-85630000D03*
X125350000Y-85630000D03*
X122810000Y-85630000D03*
X120270000Y-85630000D03*
X117730000Y-85630000D03*
X115190000Y-85630000D03*
X112650000Y-85630000D03*
X110110000Y-85630000D03*
X107570000Y-85630000D03*
X105030000Y-85630000D03*
X102490000Y-85630000D03*
X99950000Y-85630000D03*
X97410000Y-85630000D03*
X94870000Y-85630000D03*
X97410000Y-88170000D03*
D14*
X95600000Y-91980000D03*
X95600000Y-94520000D03*
%TD*%
D15*
%TO.C,J_POWER1*%
X194255000Y-78385000D03*
D16*
X194255000Y-71185000D03*
%TD*%
D17*
%TO.C,BZ1*%
X179014000Y-117317000D03*
D18*
X171414000Y-117317000D03*
%TD*%
D19*
%TO.C,J_PYRO1*%
X209755000Y-113477000D03*
D20*
X209755000Y-108477000D03*
%TD*%
D19*
%TO.C,SW1*%
X209755000Y-78035000D03*
D20*
X209755000Y-73035000D03*
%TD*%
D19*
%TO.C,J_PYRO2*%
X209755000Y-100785000D03*
D20*
X209755000Y-95785000D03*
%TD*%
D21*
%TO.C,U2*%
X112375000Y-121905000D03*
X112375000Y-106665000D03*
X97135000Y-121905000D03*
X97135000Y-106665000D03*
D22*
X108565000Y-105395000D03*
X106025000Y-105395000D03*
X103485000Y-105395000D03*
X100945000Y-105395000D03*
X108565000Y-123175000D03*
X106025000Y-123175000D03*
X103485000Y-123175000D03*
X100945000Y-123175000D03*
%TD*%
D10*
%TO.C,U5*%
X130991900Y-66291600D03*
X128451900Y-66291600D03*
X125911900Y-66291600D03*
X123371900Y-66291600D03*
X120831900Y-66291600D03*
X118291900Y-66291600D03*
X128451900Y-78991600D03*
X125911900Y-78991600D03*
X123371900Y-78991600D03*
X120831900Y-78991600D03*
D11*
X134801900Y-78991600D03*
X134801900Y-66291600D03*
X114481900Y-78991600D03*
X114481900Y-66291600D03*
%TD*%
D23*
%TO.C,U3*%
X94148400Y-78881086D03*
D10*
X96688400Y-78881086D03*
X99228400Y-78881086D03*
X101768400Y-78881086D03*
X104308400Y-78881086D03*
X106848400Y-78881086D03*
X109388400Y-78881086D03*
D11*
X94783400Y-66181086D03*
X108753400Y-66181086D03*
%TD*%
D24*
%TO.C,D2*%
X164293800Y-71932800D03*
D25*
X166833800Y-71932800D03*
%TD*%
D24*
%TO.C,D1*%
X164293800Y-67321000D03*
D25*
X166833800Y-67321000D03*
%TD*%
M02*
