<svg xmlns="http://www.w3.org/2000/svg" width="1600" height="1000" viewBox="0 0 1600 1000">
  <defs>
    <style>
      text { font-family: Arial, Helvetica, sans-serif; fill: #1f2933; }
      .title { font-size: 34px; font-weight: 700; }
      .subtitle { font-size: 18px; fill: #52606d; }
      .box { fill: #f8fafc; stroke: #263238; stroke-width: 3; rx: 10; }
      .teensy { fill: #eef5ff; stroke: #1d4ed8; stroke-width: 3; rx: 10; }
      .label { font-size: 21px; font-weight: 700; }
      .pin { font-size: 15px; fill: #334e68; }
      .note { font-size: 17px; fill: #3e4c59; }
      .crit { font-size: 17px; font-weight: 700; fill: #9a3412; }
      .vcc { stroke: #d92d20; stroke-width: 4; fill: none; }
      .gnd { stroke: #111827; stroke-width: 4; fill: none; }
      .i2c { stroke: #2563eb; stroke-width: 4; fill: none; }
      .spi { stroke: #16a34a; stroke-width: 4; fill: none; }
      .ctrl { stroke: #f59e0b; stroke-width: 4; fill: none; }
      .uart { stroke: #9333ea; stroke-width: 4; fill: none; }
      .strap { stroke: #ea580c; stroke-width: 4; fill: none; stroke-dasharray: 10 7; }
      .thin { stroke-width: 2.5; }
    </style>
  </defs>

  <rect x="25" y="25" width="1550" height="950" fill="#ffffff" stroke="#cbd5e1" stroke-width="3"/>
  <text x="60" y="75" class="title">NURA Current Stack Carrier PCB Wiring</text>
  <text x="60" y="108" class="subtitle">Current PCB pinmap: I2C0 MPL D18/D19, I2C1 LIS D17/D16, SPI0 D11/D12/D13, GPS D14/D15</text>

  <rect x="650" y="170" width="260" height="620" class="teensy"/>
  <text x="700" y="210" class="label">Teensy 4.1</text>
  <text x="680" y="245" class="pin">3.3V rail, not VIN</text>
  <text x="680" y="270" class="pin">GND common</text>
  <text x="680" y="305" class="pin">D18 SDA0 / MPL</text>
  <text x="680" y="330" class="pin">D19 SCL0 / MPL</text>
  <text x="680" y="350" class="pin">D17 SDA1, D16 SCL1 / LIS</text>
  <text x="680" y="365" class="pin">D11 MOSI</text>
  <text x="680" y="390" class="pin">D12 MISO</text>
  <text x="680" y="415" class="pin">D13 SCK</text>
  <text x="680" y="450" class="pin">D10 LSM CS</text>
  <text x="680" y="475" class="pin">D0 H3L CS</text>
  <text x="680" y="500" class="pin">D9 LoRa NSS</text>
  <text x="680" y="525" class="pin">D30 LoRa RXE (not reset)</text>
  <text x="680" y="550" class="pin">D31 LoRa DIO1, D32 BUSY</text>
  <text x="680" y="570" class="pin">D2 buzzer, D34/D33 LEDs</text>
  <text x="680" y="585" class="pin">D15 RX3 from GPS TX</text>
  <text x="680" y="610" class="pin">D14 TX3 to GPS RX</text>

  <rect x="95" y="170" width="360" height="230" class="box"/>
  <text x="125" y="210" class="label">LIS3MDL I2C</text>
  <text x="125" y="245" class="pin">VCC -> 3.3V</text>
  <text x="125" y="270" class="pin">GND + top GND -> GND</text>
  <text x="125" y="295" class="pin">SDA -> D17 / SDA1</text>
  <text x="125" y="320" class="pin">SCL -> D16 / SCL1</text>
  <text x="125" y="350" class="crit">CS -> 3.3V, DO/SDO -> GND</text>
  <text x="125" y="375" class="pin">Address: 0x1C</text>

  <rect x="95" y="455" width="360" height="165" class="box"/>
  <text x="125" y="495" class="label">MPL3115A2 I2C</text>
  <text x="125" y="530" class="pin">VCC -> 3.3V</text>
  <text x="125" y="555" class="pin">GND -> GND</text>
  <text x="125" y="580" class="pin">SDA -> D18, SCL -> D19</text>
  <text x="125" y="605" class="pin">Address: 0x60</text>

  <rect x="95" y="675" width="360" height="215" class="box"/>
  <text x="125" y="715" class="label">I2C Pull-ups</text>
  <text x="125" y="755" class="crit">R1 4.7k: SDA -> 3.3V</text>
  <text x="125" y="785" class="crit">R2 4.7k: SCL -> 3.3V</text>
  <text x="125" y="825" class="note">One pull-up pair on the bus.</text>
  <text x="125" y="855" class="note">This fixes floating SDA/SCL.</text>

  <rect x="1135" y="155" width="360" height="210" class="box"/>
  <text x="1165" y="195" class="label">LSM6DSO32 SPI</text>
  <text x="1165" y="230" class="pin">SCL/SCK -> D13</text>
  <text x="1165" y="255" class="pin">SDA/MOSI -> D11</text>
  <text x="1165" y="280" class="pin">DO/MISO -> D12</text>
  <text x="1165" y="305" class="pin">CS -> D10</text>
  <text x="1165" y="330" class="pin">VCC -> 3.3V, GND -> GND</text>

  <rect x="1135" y="410" width="360" height="220" class="box"/>
  <text x="1165" y="450" class="label">H3LIS331DL SPI</text>
  <text x="1165" y="485" class="pin">SCL/SCK -> D13</text>
  <text x="1165" y="510" class="pin">SDA/MOSI -> D11</text>
  <text x="1165" y="535" class="pin">SA0/SDO/MISO -> D12</text>
  <text x="1165" y="560" class="pin">CS -> D0</text>
  <text x="1165" y="585" class="pin">VCC -> 3.3V, GND -> GND</text>

  <rect x="1135" y="680" width="360" height="220" class="box"/>
  <text x="1165" y="720" class="label">SX1262 LoRa</text>
  <text x="1165" y="755" class="pin">SCK/MOSI/MISO -> D13/D11/D12</text>
  <text x="1165" y="780" class="pin">NSS -> D9, RXE -> D30 (unverified)</text>
  <text x="1165" y="805" class="pin">DIO1 -> D31, BUSY -> D32</text>
  <text x="1165" y="830" class="pin">VCC -> 3.3V, GND -> GND</text>
  <text x="1165" y="855" class="note">Keep 3.3V path short and decoupled.</text>

  <rect x="615" y="830" width="360" height="120" class="box"/>
  <text x="645" y="870" class="label">GY-GPS6MV2 UART</text>
  <text x="645" y="905" class="pin">GPS TX -> D15/RX3, GPS RX -> D14/TX3</text>
  <text x="645" y="930" class="pin">VCC -> 3.3V, GND -> GND</text>

  <path d="M650 305 C560 300 500 295 455 295" class="i2c"/>
  <path d="M650 330 C560 330 500 320 455 320" class="i2c thin"/>
  <path d="M650 305 C555 480 500 570 455 580" class="i2c"/>
  <path d="M650 330 C555 500 500 590 455 580" class="i2c thin"/>
  <path d="M650 245 C540 215 500 245 455 245" class="vcc"/>
  <path d="M650 270 C540 255 500 270 455 270" class="gnd"/>
  <path d="M455 350 C500 355 560 250 650 245" class="strap"/>
  <path d="M455 365 C505 370 560 275 650 270" class="strap"/>
  <path d="M455 755 C520 710 590 305 650 305" class="i2c"/>
  <path d="M455 785 C525 735 595 330 650 330" class="i2c thin"/>
  <path d="M455 755 C520 680 590 245 650 245" class="vcc"/>
  <path d="M455 785 C525 705 595 245 650 245" class="vcc thin"/>

  <path d="M910 365 C990 270 1060 230 1135 230" class="spi"/>
  <path d="M910 390 C1000 280 1065 255 1135 255" class="spi"/>
  <path d="M910 415 C1010 300 1070 280 1135 280" class="spi"/>
  <path d="M910 450 C1000 335 1070 305 1135 305" class="ctrl"/>

  <path d="M910 365 C995 455 1065 485 1135 485" class="spi"/>
  <path d="M910 390 C1000 485 1065 510 1135 510" class="spi"/>
  <path d="M910 415 C1010 515 1070 535 1135 535" class="spi"/>
  <path d="M910 475 C1010 560 1070 560 1135 560" class="ctrl"/>

  <path d="M910 365 C995 730 1065 755 1135 755" class="spi"/>
  <path d="M910 390 C1000 740 1065 755 1135 755" class="spi"/>
  <path d="M910 415 C1010 750 1070 755 1135 755" class="spi"/>
  <path d="M910 500 C1040 780 1095 780 1135 780" class="ctrl"/>
  <path d="M910 525 C1040 800 1095 805 1135 805" class="ctrl"/>
  <path d="M910 550 C1040 820 1095 805 1135 805" class="ctrl"/>

  <path d="M780 790 C780 810 780 825 780 830" class="uart"/>
  <path d="M815 790 C815 810 815 825 815 830" class="uart thin"/>

  <line x1="60" y1="930" x2="180" y2="930" class="vcc"/>
  <text x="195" y="936" class="note">3.3V</text>
  <line x1="300" y1="930" x2="420" y2="930" class="gnd"/>
  <text x="435" y="936" class="note">GND</text>
  <line x1="540" y1="930" x2="660" y2="930" class="i2c"/>
  <text x="675" y="936" class="note">I2C</text>
  <line x1="780" y1="930" x2="900" y2="930" class="spi"/>
  <text x="915" y="936" class="note">SPI</text>
  <line x1="1020" y1="930" x2="1140" y2="930" class="ctrl"/>
  <text x="1155" y="936" class="note">CS/RST/DIO</text>
  <line x1="1320" y1="930" x2="1440" y2="930" class="uart"/>
  <text x="1455" y="936" class="note">UART</text>
</svg>
