%TF.GenerationSoftware,KiCad,Pcbnew,10.0.2*%
%TF.CreationDate,2026-07-06T20:34:30+09:00*%
%TF.ProjectId,avionics,6176696f-6e69-4637-932e-6b696361645f,rev?*%
%TF.SameCoordinates,Original*%
%TF.FileFunction,Soldermask,Top*%
%TF.FilePolarity,Negative*%
%FSLAX46Y46*%
G04 Gerber Fmt 4.6, Leading zero omitted, Abs format (unit mm)*
G04 Created by KiCad (PCBNEW 10.0.2) date 2026-07-06 20:34:30*
%MOMM*%
%LPD*%
G01*
G04 APERTURE LIST*
G04 Aperture macros list*
%AMRoundRect*
0 Rectangle with rounded corners*
0 $1 Rounding radius*
0 $2 $3 $4 $5 $6 $7 $8 $9 X,Y pos of 4 corners*
0 Add a 4 corners polygon primitive as box body*
4,1,4,$2,$3,$4,$5,$6,$7,$8,$9,$2,$3,0*
0 Add four circle primitives for the rounded corners*
1,1,$1+$1,$2,$3*
1,1,$1+$1,$4,$5*
1,1,$1+$1,$6,$7*
1,1,$1+$1,$8,$9*
0 Add four rect primitives between the rounded corners*
20,1,$1+$1,$2,$3,$4,$5,0*
20,1,$1+$1,$4,$5,$6,$7,0*
20,1,$1+$1,$6,$7,$8,$9,0*
20,1,$1+$1,$8,$9,$2,$3,0*%
G04 Aperture macros list end*
%ADD10RoundRect,0.250000X-0.262500X-0.450000X0.262500X-0.450000X0.262500X0.450000X-0.262500X0.450000X0*%
%ADD11RoundRect,0.250000X0.262500X0.450000X-0.262500X0.450000X-0.262500X-0.450000X0.262500X-0.450000X0*%
%ADD12R,1.700000X1.700000*%
%ADD13C,1.700000*%
%ADD14RoundRect,0.250000X0.475000X-0.250000X0.475000X0.250000X-0.475000X0.250000X-0.475000X-0.250000X0*%
%ADD15C,1.300000*%
%ADD16C,1.600000*%
%ADD17R,1.600000X1.600000*%
%ADD18RoundRect,0.250000X0.450000X-0.262500X0.450000X0.262500X-0.450000X0.262500X-0.450000X-0.262500X0*%
%ADD19RoundRect,0.250000X0.250000X-0.275000X0.250000X0.275000X-0.250000X0.275000X-0.250000X-0.275000X0*%
%ADD20RoundRect,0.250000X0.275000X-0.850000X0.275000X0.850000X-0.275000X0.850000X-0.275000X-0.850000X0*%
%ADD21RoundRect,0.250000X0.250000X0.475000X-0.250000X0.475000X-0.250000X-0.475000X0.250000X-0.475000X0*%
%ADD22RoundRect,0.250002X1.799998X1.799998X-1.799998X1.799998X-1.799998X-1.799998X1.799998X-1.799998X0*%
%ADD23C,1.879600*%
%ADD24C,3.301600*%
%ADD25RoundRect,0.250000X-0.250000X-0.475000X0.250000X-0.475000X0.250000X0.475000X-0.250000X0.475000X0*%
%ADD26RoundRect,0.250000X-0.350000X0.850000X-0.350000X-0.850000X0.350000X-0.850000X0.350000X0.850000X0*%
%ADD27RoundRect,0.249997X-2.650003X2.950003X-2.650003X-2.950003X2.650003X-2.950003X2.650003X2.950003X0*%
%ADD28RoundRect,1.500000X1.500000X-1.500000X1.500000X1.500000X-1.500000X1.500000X-1.500000X-1.500000X0*%
%ADD29C,6.000000*%
%ADD30R,2.000000X2.000000*%
%ADD31C,2.000000*%
%ADD32RoundRect,0.250000X0.350000X-0.850000X0.350000X0.850000X-0.350000X0.850000X-0.350000X-0.850000X0*%
%ADD33RoundRect,0.249997X2.650003X-2.950003X2.650003X2.950003X-2.650003X2.950003X-2.650003X-2.950003X0*%
%ADD34RoundRect,0.375000X-0.625000X-0.375000X0.625000X-0.375000X0.625000X0.375000X-0.625000X0.375000X0*%
%ADD35RoundRect,0.500000X-0.500000X-1.400000X0.500000X-1.400000X0.500000X1.400000X-0.500000X1.400000X0*%
%ADD36RoundRect,0.250001X1.149999X-1.149999X1.149999X1.149999X-1.149999X1.149999X-1.149999X-1.149999X0*%
%ADD37C,2.800000*%
%ADD38RoundRect,0.250000X-0.450000X0.262500X-0.450000X-0.262500X0.450000X-0.262500X0.450000X0.262500X0*%
%ADD39C,3.302000*%
%ADD40C,2.082800*%
%ADD41R,0.800000X2.000000*%
%ADD42RoundRect,0.250000X-1.200000X0.550000X-1.200000X-0.550000X1.200000X-0.550000X1.200000X0.550000X0*%
%ADD43RoundRect,0.050800X0.889000X-0.889000X0.889000X0.889000X-0.889000X0.889000X-0.889000X-0.889000X0*%
%ADD44RoundRect,0.150000X0.512500X0.150000X-0.512500X0.150000X-0.512500X-0.150000X0.512500X-0.150000X0*%
%ADD45R,1.000000X1.500000*%
%ADD46R,1.800000X1.800000*%
%ADD47C,1.800000*%
G04 APERTURE END LIST*
%TO.C,J1*%
G36*
X140290000Y-64685000D02*
G01*
X142170000Y-64685000D01*
X142170000Y-66775000D01*
X140290000Y-66775000D01*
X140290000Y-64685000D01*
G37*
%TO.C,JP1*%
G36*
X146605000Y-66035000D02*
G01*
X146905000Y-66035000D01*
X146905000Y-67535000D01*
X146605000Y-67535000D01*
X146605000Y-66035000D01*
G37*
%TD*%
D10*
%TO.C,R30*%
X151342500Y-104285000D03*
X153167500Y-104285000D03*
%TD*%
D11*
%TO.C,R30*%
X145755000Y-108785000D03*
X143930000Y-108785000D03*
%TD*%
D12*
%TO.C,pinheader*%
X158755000Y-109285000D03*
D13*
X161295000Y-109285000D03*
%TD*%
D14*
%TO.C,C30*%
X156255000Y-115235000D03*
X156255000Y-113335000D03*
%TD*%
%TO.C,C31*%
X154255000Y-115235000D03*
X154255000Y-113335000D03*
%TD*%
D15*
%TO.C,U4*%
X95600000Y-94520000D03*
X95600000Y-91980000D03*
D16*
X97410000Y-88170000D03*
X94870000Y-85630000D03*
X97410000Y-85630000D03*
X99950000Y-85630000D03*
X102490000Y-85630000D03*
X105030000Y-85630000D03*
X107570000Y-85630000D03*
X110110000Y-85630000D03*
X112650000Y-85630000D03*
X115190000Y-85630000D03*
X117730000Y-85630000D03*
X120270000Y-85630000D03*
X122810000Y-85630000D03*
X125350000Y-85630000D03*
X127890000Y-85630000D03*
X130430000Y-85630000D03*
X132970000Y-85630000D03*
X135510000Y-85630000D03*
X138050000Y-85630000D03*
X140590000Y-85630000D03*
X143130000Y-85630000D03*
X145670000Y-85630000D03*
X148210000Y-85630000D03*
X150750000Y-85630000D03*
X153290000Y-85630000D03*
X153290000Y-100870000D03*
X150750000Y-100870000D03*
X148210000Y-100870000D03*
X145670000Y-100870000D03*
X143130000Y-100870000D03*
X140590000Y-100870000D03*
X138050000Y-100870000D03*
X135510000Y-100870000D03*
X132970000Y-100870000D03*
X130430000Y-100870000D03*
X127890000Y-100870000D03*
X125350000Y-100870000D03*
X122810000Y-100870000D03*
X120270000Y-100870000D03*
X117730000Y-100870000D03*
X115190000Y-100870000D03*
X112650000Y-100870000D03*
X110110000Y-100870000D03*
X107570000Y-100870000D03*
X105030000Y-100870000D03*
X102490000Y-100870000D03*
X99950000Y-100870000D03*
X97410000Y-100870000D03*
D17*
X94870000Y-100870000D03*
%TD*%
D18*
%TO.C,R14*%
X184607200Y-71168900D03*
X184607200Y-69343900D03*
%TD*%
D10*
%TO.C,R22*%
X106885100Y-82905600D03*
X108710100Y-82905600D03*
%TD*%
D19*
%TO.C,J1*%
X141230000Y-67310000D03*
D20*
X139755000Y-65785000D03*
X142705000Y-65785000D03*
%TD*%
D10*
%TO.C,R28*%
X106092500Y-112035000D03*
X107917500Y-112035000D03*
%TD*%
D11*
%TO.C,R7*%
X189360000Y-108285000D03*
X187535000Y-108285000D03*
%TD*%
D18*
%TO.C,R11*%
X182596000Y-71168900D03*
X182596000Y-69343900D03*
%TD*%
D21*
%TO.C,C8*%
X160455000Y-96535000D03*
X158555000Y-96535000D03*
%TD*%
D22*
%TO.C,L1*%
X172005000Y-81785000D03*
X162505000Y-81785000D03*
%TD*%
D23*
%TO.C,U1*%
X138415000Y-106435000D03*
X135875000Y-106435000D03*
X133335000Y-106435000D03*
X130795000Y-106435000D03*
X128255000Y-106435000D03*
X125715000Y-106435000D03*
X123175000Y-106435000D03*
X120635000Y-106435000D03*
X118095000Y-106435000D03*
X133335000Y-119135000D03*
X130795000Y-119135000D03*
X128255000Y-119135000D03*
X125715000Y-119135000D03*
X123175000Y-119135000D03*
D24*
X138415000Y-119135000D03*
X118095000Y-119135000D03*
%TD*%
D25*
%TO.C,C1*%
X153305000Y-67285000D03*
X155205000Y-67285000D03*
%TD*%
D11*
%TO.C,R23*%
X121865400Y-82956400D03*
X120040400Y-82956400D03*
%TD*%
D14*
%TO.C,C9*%
X92005000Y-85485000D03*
X92005000Y-83585000D03*
%TD*%
D18*
%TO.C,R19*%
X197585000Y-98197500D03*
X197585000Y-96372500D03*
%TD*%
D25*
%TO.C,C5*%
X164805000Y-88785000D03*
X166705000Y-88785000D03*
%TD*%
D10*
%TO.C,R15*%
X191115000Y-97512500D03*
X192940000Y-97512500D03*
%TD*%
D26*
%TO.C,Q1*%
X192535000Y-112310000D03*
D27*
X190255000Y-118610000D03*
D26*
X187975000Y-112310000D03*
%TD*%
D28*
%TO.C,J_POWER1*%
X194255000Y-78385000D03*
D29*
X194255000Y-71185000D03*
%TD*%
D30*
%TO.C,BZ1*%
X179014000Y-117317000D03*
D31*
X171414000Y-117317000D03*
%TD*%
D32*
%TO.C,Q4*%
X196695000Y-93585000D03*
D33*
X198975000Y-87285000D03*
D32*
X201255000Y-93585000D03*
%TD*%
D11*
%TO.C,R29*%
X151167500Y-121285000D03*
X149342500Y-121285000D03*
%TD*%
D10*
%TO.C,R4*%
X191122500Y-106310000D03*
X192947500Y-106310000D03*
%TD*%
%TO.C,R27*%
X127342500Y-111785000D03*
X129167500Y-111785000D03*
%TD*%
D21*
%TO.C,C14*%
X160755000Y-87275000D03*
X158855000Y-87275000D03*
%TD*%
D25*
%TO.C,C4*%
X175305000Y-86785000D03*
X177205000Y-86785000D03*
%TD*%
%TO.C,C6*%
X198550000Y-103000000D03*
X200450000Y-103000000D03*
%TD*%
D10*
%TO.C,R8*%
X166842500Y-91035000D03*
X168667500Y-91035000D03*
%TD*%
D34*
%TO.C,U8*%
X166105000Y-96485000D03*
X166105000Y-98785000D03*
D35*
X172405000Y-98785000D03*
D34*
X166105000Y-101085000D03*
%TD*%
D25*
%TO.C,C12*%
X181805000Y-83285000D03*
X183705000Y-83285000D03*
%TD*%
%TO.C,C11*%
X181805000Y-80285000D03*
X183705000Y-80285000D03*
%TD*%
D10*
%TO.C,R5*%
X162967000Y-91028000D03*
X164792000Y-91028000D03*
%TD*%
D36*
%TO.C,J_PYRO1*%
X209755000Y-113477000D03*
D37*
X209755000Y-108477000D03*
%TD*%
D38*
%TO.C,R12*%
X180596000Y-69343900D03*
X180596000Y-71168900D03*
%TD*%
D11*
%TO.C,R17*%
X189233500Y-99546500D03*
X187408500Y-99546500D03*
%TD*%
D12*
%TO.C,J3*%
X148550000Y-107580000D03*
D13*
X151090000Y-107580000D03*
X148550000Y-110120000D03*
X151090000Y-110120000D03*
X148550000Y-112660000D03*
X151090000Y-112660000D03*
X148550000Y-115200000D03*
X151090000Y-115200000D03*
X148550000Y-117740000D03*
X151090000Y-117740000D03*
%TD*%
D18*
%TO.C,R20*%
X200535000Y-98197500D03*
X200535000Y-96372500D03*
%TD*%
D36*
%TO.C,SW1*%
X209755000Y-78035000D03*
D37*
X209755000Y-73035000D03*
%TD*%
D38*
%TO.C,R10*%
X197255000Y-107372500D03*
X197255000Y-109197500D03*
%TD*%
D21*
%TO.C,C7*%
X160455000Y-94035000D03*
X158555000Y-94035000D03*
%TD*%
D36*
%TO.C,J_PYRO2*%
X209755000Y-100785000D03*
D37*
X209755000Y-95785000D03*
%TD*%
D21*
%TO.C,C13*%
X160755000Y-90285000D03*
X158855000Y-90285000D03*
%TD*%
D25*
%TO.C,C21*%
X190050000Y-103000000D03*
X191950000Y-103000000D03*
%TD*%
D11*
%TO.C,R24*%
X118411000Y-82956400D03*
X116586000Y-82956400D03*
%TD*%
D39*
%TO.C,U2*%
X112375000Y-121905000D03*
X112375000Y-106665000D03*
X97135000Y-121905000D03*
X97135000Y-106665000D03*
D40*
X108565000Y-105395000D03*
X106025000Y-105395000D03*
X103485000Y-105395000D03*
X100945000Y-105395000D03*
X108565000Y-123175000D03*
X106025000Y-123175000D03*
X103485000Y-123175000D03*
X100945000Y-123175000D03*
%TD*%
D23*
%TO.C,U5*%
X130991900Y-66291600D03*
X128451900Y-66291600D03*
X125911900Y-66291600D03*
X123371900Y-66291600D03*
X120831900Y-66291600D03*
X118291900Y-66291600D03*
X128451900Y-78991600D03*
X125911900Y-78991600D03*
X123371900Y-78991600D03*
X120831900Y-78991600D03*
D24*
X134801900Y-78991600D03*
X134801900Y-66291600D03*
X114481900Y-78991600D03*
X114481900Y-66291600D03*
%TD*%
D41*
%TO.C,U6*%
X154255000Y-69685000D03*
X153155000Y-69685000D03*
X152055000Y-69685000D03*
X150955000Y-69685000D03*
X149855000Y-69685000D03*
X148755000Y-69685000D03*
X147655000Y-69685000D03*
X144655000Y-69685000D03*
X143555000Y-69685000D03*
X142455000Y-69685000D03*
X141355000Y-69685000D03*
X140255000Y-69685000D03*
X140255000Y-81885000D03*
X141355000Y-81885000D03*
X142455000Y-81885000D03*
X143555000Y-81885000D03*
X144655000Y-81885000D03*
X147655000Y-81885000D03*
X148755000Y-81885000D03*
X149855000Y-81885000D03*
X150955000Y-81885000D03*
X152055000Y-81885000D03*
X153155000Y-81885000D03*
X154255000Y-81885000D03*
%TD*%
D10*
%TO.C,R26*%
X169318300Y-72285000D03*
X171143300Y-72285000D03*
%TD*%
%TO.C,R18*%
X187408500Y-97512500D03*
X189233500Y-97512500D03*
%TD*%
D42*
%TO.C,F1*%
X209755000Y-84085000D03*
X209755000Y-89485000D03*
%TD*%
D10*
%TO.C,R21*%
X103125900Y-82854800D03*
X104950900Y-82854800D03*
%TD*%
D38*
%TO.C,R9*%
X200205000Y-107372500D03*
X200205000Y-109197500D03*
%TD*%
D43*
%TO.C,U3*%
X94148400Y-78881086D03*
D23*
X96688400Y-78881086D03*
X99228400Y-78881086D03*
X101768400Y-78881086D03*
X104308400Y-78881086D03*
X106848400Y-78881086D03*
X109388400Y-78881086D03*
D24*
X94783400Y-66181086D03*
X108753400Y-66181086D03*
%TD*%
D10*
%TO.C,R25*%
X169318300Y-68021200D03*
X171143300Y-68021200D03*
%TD*%
D44*
%TO.C,U9*%
X179530000Y-84185000D03*
X179530000Y-83235000D03*
X179530000Y-82285000D03*
X177255000Y-82285000D03*
X177255000Y-83235000D03*
X177255000Y-84185000D03*
%TD*%
D10*
%TO.C,R6*%
X187535000Y-106285000D03*
X189360000Y-106285000D03*
%TD*%
D26*
%TO.C,Q2*%
X201315000Y-112310000D03*
D27*
X199035000Y-118610000D03*
D26*
X196755000Y-112310000D03*
%TD*%
D45*
%TO.C,JP1*%
X146105000Y-66785000D03*
X147405000Y-66785000D03*
%TD*%
D46*
%TO.C,D2*%
X164293800Y-72285000D03*
D47*
X166833800Y-72285000D03*
%TD*%
D11*
%TO.C,R16*%
X192940000Y-99544500D03*
X191115000Y-99544500D03*
%TD*%
D14*
%TO.C,C15*%
X178562000Y-71206400D03*
X178562000Y-69306400D03*
%TD*%
D32*
%TO.C,Q3*%
X187975000Y-93585000D03*
D33*
X190255000Y-87285000D03*
D32*
X192535000Y-93585000D03*
%TD*%
D46*
%TO.C,D1*%
X164293800Y-67321000D03*
D47*
X166833800Y-67321000D03*
%TD*%
D11*
%TO.C,R3*%
X192947500Y-108310000D03*
X191122500Y-108310000D03*
%TD*%
D14*
%TO.C,C10*%
X89750000Y-85485000D03*
X89750000Y-83585000D03*
%TD*%
M02*
