M48
; DRILL file KiCad 10.0.2 date 2026-05-27T02:47:48
; FORMAT={-:-/ absolute / metric / decimal}
; #@! TF.CreationDate,2026-05-27T02:47:48+09:00
; #@! TF.GenerationSoftware,Kicad,Pcbnew,10.0.2
; #@! TF.FileFunction,Plated,1,2,PTH
FMAT,2
METRIC
; #@! TA.AperFunction,Plated,PTH,ViaDrill
T1C0.300
; #@! TA.AperFunction,Plated,PTH,ComponentDrill
T2C0.800
; #@! TA.AperFunction,Plated,PTH,ComponentDrill
T3C0.900
; #@! TA.AperFunction,Plated,PTH,ComponentDrill
T4C1.000
; #@! TA.AperFunction,Plated,PTH,ComponentDrill
T5C1.016
; #@! TA.AperFunction,Plated,PTH,ComponentDrill
T6C1.100
; #@! TA.AperFunction,Plated,PTH,ComponentDrill
T7C1.300
; #@! TA.AperFunction,Plated,PTH,ComponentDrill
T8C2.500
; #@! TA.AperFunction,Plated,PTH,ComponentDrill
T9C4.500
%
G90
G05
T1
X106.761Y-89.631
X112.603Y-93.314
X112.755Y-103.285
X115.255Y-105.785
X118.255Y-102.285
X127.965Y-96.672
X129.845Y-113.589
X131.216Y-108.864
X131.267Y-103.784
X132.639Y-88.595
X144.255Y-120.285
X147.422Y-92.507
X155.702Y-93.32
X159.512Y-100.076
X160.755Y-112.285
X166.878Y-101.346
X167.755Y-106.285
X169.755Y-106.285
X171.255Y-106.285
X171.255Y-108.285
X172.928Y-95.854
X173.126Y-67.767
X173.126Y-71.222
X174.244Y-76.606
X175.87Y-81.991
X176.865Y-98.14
X178.562Y-68.052
X178.755Y-101.741
X185.755Y-103.004
X185.755Y-103.785
X185.755Y-105.285
X186.035Y-96.139
X186.233Y-71.151
X186.255Y-111.785
X187.403Y-105.12
X190.755Y-105.285
X190.755Y-110.285
X193.0Y-103.0
X194.035Y-94.285
X194.417Y-97.663
X195.255Y-111.785
X195.755Y-101.785
X196.255Y-106.373
X196.368Y-104.545
X200.035Y-99.285
X201.5Y-103.0
X201.778Y-65.329
X201.778Y-80.213
X202.535Y-94.285
X207.467Y-85.852
X208.128Y-68.682
T2
X95.6Y-91.98
X95.6Y-94.52
T3
X164.294Y-67.321
X164.294Y-71.933
X166.834Y-67.321
X166.834Y-71.933
T4
X94.148Y-78.881
X96.688Y-78.881
X99.228Y-78.881
X101.768Y-78.881
X104.308Y-78.881
X106.848Y-78.881
X109.388Y-78.881
X118.095Y-106.435
X118.292Y-66.292
X120.635Y-106.435
X120.832Y-66.292
X120.832Y-78.992
X123.175Y-106.435
X123.175Y-119.135
X123.372Y-66.292
X123.372Y-78.992
X125.715Y-106.435
X125.715Y-119.135
X125.912Y-66.292
X125.912Y-78.992
X128.255Y-106.435
X128.255Y-119.135
X128.452Y-66.292
X128.452Y-78.992
X130.795Y-106.435
X130.795Y-119.135
X130.992Y-66.292
X133.335Y-106.435
X133.335Y-119.135
X135.875Y-106.435
X138.415Y-106.435
X171.414Y-117.317
X179.014Y-117.317
T5
X100.945Y-105.395
X100.945Y-123.175
X103.485Y-105.395
X103.485Y-123.175
X106.025Y-105.395
X106.025Y-123.175
X108.565Y-105.395
X108.565Y-123.175
T6
X94.87Y-85.63
X94.87Y-100.87
X97.41Y-85.63
X97.41Y-88.17
X97.41Y-100.87
X99.95Y-85.63
X99.95Y-100.87
X102.49Y-85.63
X102.49Y-100.87
X105.03Y-85.63
X105.03Y-100.87
X107.57Y-85.63
X107.57Y-100.87
X110.11Y-85.63
X110.11Y-100.87
X112.65Y-85.63
X112.65Y-100.87
X115.19Y-85.63
X115.19Y-100.87
X117.73Y-85.63
X117.73Y-100.87
X120.27Y-85.63
X120.27Y-100.87
X122.81Y-85.63
X122.81Y-100.87
X125.35Y-85.63
X125.35Y-100.87
X127.89Y-85.63
X127.89Y-100.87
X130.43Y-85.63
X130.43Y-100.87
X132.97Y-85.63
X132.97Y-100.87
X135.51Y-85.63
X135.51Y-100.87
X138.05Y-85.63
X138.05Y-100.87
X140.59Y-85.63
X140.59Y-100.87
X143.13Y-85.63
X143.13Y-100.87
X145.67Y-85.63
X145.67Y-100.87
X148.21Y-85.63
X148.21Y-100.87
X150.75Y-85.63
X150.75Y-100.87
X153.29Y-85.63
X153.29Y-100.87
T7
X209.755Y-73.035
X209.755Y-78.035
X209.755Y-95.785
X209.755Y-100.785
X209.755Y-108.477
X209.755Y-113.477
T8
X94.783Y-66.181
X108.753Y-66.181
X114.482Y-66.292
X114.482Y-78.992
X118.095Y-119.135
X134.802Y-66.292
X134.802Y-78.992
X138.415Y-119.135
T9
X194.255Y-71.185
X194.255Y-78.385
M30
